<?xml version="1.0" encoding="utf-8"?><svg version="1.1" id="Layer_1" xmlns="http://www.w3.org/2000/svg" xmlns:xlink="http://www.w3.org/1999/xlink" x="0px" y="0px" viewBox="0 0 122.88 110.29" style="enable-background:new 0 0 122.88 110.29" xml:space="preserve"><style type="text/css">.st0{fill-rule:evenodd;clip-rule:evenodd;}</style><g><path class="st0" d="M7.59,71.54l1.6-8.71c1.38-0.13,2.72-0.38,4.04-0.76c1.36-0.39,2.69-0.89,3.99-1.49l5.66,6.86L7.59,71.54 L7.59,71.54L7.59,71.54z M122.88,35.63c-3.17,6.17,2.45,14.47-3.99,19.02c-1.71,1.21-4.2,1.78-6.33,1.24 c-0.86-0.22-1.65-0.61-2.3-1.21c-0.29-0.26-0.55-0.57-0.79-0.91c-2.96-4.25-0.48-9.5,2.99-12.61 C115.66,38.3,119.93,36.63,122.88,35.63L122.88,35.63L122.88,35.63z M96.55,68.44c2.94,2.74,6.15,4.73,9.67,5.88l-6.06,8.64 c2.29,0.64,4.28,1.32,5.74,2.14c2.12,1.18,4.04,2.69,5.58,4.72c3.21,4.24,9.79,19.65-0.88,20.46H5.84 c-10.66-0.81-4.09-16.22-0.88-20.46c1.54-2.04,3.46-3.54,5.58-4.72c0.18-0.1,0.36-0.2,0.55-0.29L8.05,73.43h0l15.36-4.12 l3.01,11.22c6.03-1.41,11.94-3.05,14.95-5.76h0c5.51,16.21,28.53,16.81,33.7,0c3.04,2.74,9.06,4.38,15.15,5.81L96.55,68.44 L96.55,68.44L96.55,68.44z M107.21,56.09c0.92,1.24,2.98,2.82,4.98,2.97l-5.01,13.53c-3.86-1.27-7.28-3.12-9.93-5.95 C101.18,62.7,103.57,60.45,107.21,56.09L107.21,56.09L107.21,56.09z M13.12,83.95c0.74-0.27,1.53-0.52,2.38-0.77l-2.1-7.84 c-0.18-0.66-0.87-1.06-1.53-0.88c-0.66,0.18-1.06,0.87-0.88,1.53L13.12,83.95L13.12,83.95z M17.46,82.64 c0.78-0.2,1.59-0.4,2.42-0.6l-2.11-7.87c-0.18-0.66-0.87-1.06-1.53-0.88c-0.66,0.18-1.06,0.87-0.88,1.53L17.46,82.64L17.46,82.64z M21.87,81.58l2.43-0.56L22.15,73c-0.18-0.66-0.87-1.06-1.53-0.88c-0.66,0.18-1.06,0.87-0.88,1.53L21.87,81.58L21.87,81.58z M9.73,59.87l1.26-6.85l4.33,5.25c-0.94,0.4-1.9,0.75-2.87,1.02C11.56,59.55,10.65,59.75,9.73,59.87L9.73,59.87L9.73,59.87z M37.14,41.18c-1.15,0.04-2.03,0.28-2.63,0.69c-0.34,0.23-0.59,0.52-0.75,0.87c-0.18,0.39-0.26,0.86-0.25,1.4 c0.05,1.59,0.88,3.66,2.48,6.05l0.02,0.03l0,0l5.21,8.29c2.09,3.32,4.28,6.71,7,9.2c2.62,2.39,5.79,4.01,9.99,4.02 c4.55,0.01,7.87-1.67,10.57-4.2c2.81-2.63,5.02-6.23,7.21-9.83l5.87-9.67c1.09-2.5,1.49-4.17,1.24-5.15 c-0.15-0.58-0.79-0.87-1.89-0.92c-0.23-0.01-0.47-0.01-0.71-0.01c-0.26,0.01-0.54,0.03-0.82,0.05c-0.16,0.01-0.31,0-0.45-0.03 c-0.52,0.03-1.06-0.01-1.61-0.09l2.01-8.9c-14.92,2.35-26.07-8.73-41.84-2.22l1.14,10.49C38.31,41.29,37.7,41.26,37.14,41.18 L37.14,41.18L37.14,41.18z M83.23,39.31c1.44,0.44,2.37,1.36,2.75,2.84c0.42,1.64-0.04,3.96-1.43,7.12l0,0 c-0.03,0.06-0.05,0.11-0.09,0.17l-5.94,9.78c-2.29,3.77-4.61,7.55-7.71,10.45c-3.21,3.01-7.17,5.01-12.58,4.99 c-5.05-0.01-8.86-1.94-11.98-4.8c-3.01-2.76-5.32-6.31-7.51-9.8l-5.21-8.28c-1.91-2.84-2.9-5.44-2.96-7.57 c-0.03-1,0.14-1.91,0.51-2.71c0.39-0.84,0.99-1.54,1.79-2.08c0.38-0.25,0.8-0.47,1.26-0.64c-0.34-4.49-0.46-10.16-0.25-14.9 c0.11-1.12,0.33-2.25,0.64-3.37c1.33-4.76,4.67-8.59,8.8-11.22c2.28-1.45,4.78-2.55,7.38-3.28c1.65-0.47-1.41-5.76,0.3-5.93 c8.27-0.85,21.66,6.7,27.43,12.95c2.89,3.13,4.71,7.28,5.1,12.77L83.23,39.31L83.23,39.31L83.23,39.31z"/></g></svg>